{"asset":{"generator":"Khronos glTF Blender I/O v4.0.44","version":"2.0"},"scene":0,"scenes":[{"name":"Scene","nodes":[0]}],"nodes":[{"mesh":0,"name":"Banner_1"}],"materials":[{"doubleSided":true,"name":"MI_Trim_Furniture","pbrMetallicRoughness":{"baseColorTexture":{"index":0},"metallicFactor":0.0,"roughnessFactor":0.8}},{"doubleSided":true,"name":"MI_Trim_Metal","pbrMetallicRoughness":{"baseColorTexture":{"index":1},"metallicFactor":0.0,"roughnessFactor":0.8}},{"doubleSided":true,"name":"MI_Banner","pbrMetallicRoughness":{"baseColorTexture":{"index":2},"metallicFactor":0.0,"roughnessFactor":0.8}}],"meshes":[{"name":"Cube.187","primitives":[{"attributes":{"POSITION":1,"NORMAL":2,"TEXCOORD_0":3,"TEXCOORD_1":4},"indices":5,"material":0},{"attributes":{"POSITION":7,"NORMAL":8,"TEXCOORD_0":9,"TEXCOORD_1":10},"indices":11,"material":1},{"attributes":{"POSITION":13,"NORMAL":14,"TEXCOORD_0":15,"TEXCOORD_1":16},"indices":17,"material":2}]}],"textures":[{"sampler":0,"source":0},{"sampler":0,"source":1},{"sampler":0,"source":2}],"images":[{"uri":"T_Trim_Furniture_BaseColor.png"},{"uri":"T_Trim_Metal_BaseColor.png"},{"uri":"T_Trim_Cloth_BaseColor.png"}],"accessors":[{"bufferView":0,"componentType":5123,"count":164,"normalized":true,"type":"VEC4"},{"bufferView":1,"componentType":5126,"count":164,"max":[1.6123000383377075,0.8106507658958435,0.07623777538537979],"min":[-0.0008076705853454769,-0.8036257028579712,-0.07623784244060516],"type":"VEC3"},{"bufferView":2,"componentType":5126,"count":164,"type":"VEC3"},{"bufferView":3,"componentType":5126,"count":164,"type":"VEC2"},{"bufferView":4,"componentType":5126,"count":164,"type":"VEC2"},{"bufferView":5,"componentType":5123,"count":432,"type":"SCALAR"},{"bufferView":6,"componentType":5123,"count":144,"normalized":true,"type":"VEC4"},{"bufferView":7,"componentType":5126,"count":144,"max":[1.3999640941619873,0.8435074090957642,0.097610704600811],"min":[0.11459258943796158,-0.47926658391952515,-0.09295948594808578],"type":"VEC3"},{"bufferView":8,"componentType":5126,"count":144,"type":"VEC3"},{"bufferView":9,"componentType":5126,"count":144,"type":"VEC2"},{"bufferView":10,"componentType":5126,"count":144,"type":"VEC2"},{"bufferView":11,"componentType":5123,"count":726,"type":"SCALAR"},{"bufferView":12,"componentType":5123,"count":73,"normalized":true,"type":"VEC4"},{"bufferView":13,"componentType":5126,"count":73,"max":[1.429229736328125,0.6976960897445679,-4.9907313837138645e-09],"min":[0.6190621256828308,-1.548718810081482,-1.0935168859305122e-07],"type":"VEC3"},{"bufferView":14,"componentType":5126,"count":73,"type":"VEC3"},{"bufferView":15,"componentType":5126,"count":73,"type":"VEC2"},{"bufferView":16,"componentType":5126,"count":73,"type":"VEC2"},{"bufferView":17,"componentType":5123,"count":186,"type":"SCALAR"}],"bufferViews":[{"buffer":0,"byteLength":1312,"byteOffset":0,"target":34962},{"buffer":0,"byteLength":1968,"byteOffset":1312,"target":34962},{"buffer":0,"byteLength":1968,"byteOffset":3280,"target":34962},{"buffer":0,"byteLength":1312,"byteOffset":5248,"target":34962},{"buffer":0,"byteLength":1312,"byteOffset":6560,"target":34962},{"buffer":0,"byteLength":864,"byteOffset":7872,"target":34963},{"buffer":0,"byteLength":1152,"byteOffset":8736,"target":34962},{"buffer":0,"byteLength":1728,"byteOffset":9888,"target":34962},{"buffer":0,"byteLength":1728,"byteOffset":11616,"target":34962},{"buffer":0,"byteLength":1152,"byteOffset":13344,"target":34962},{"buffer":0,"byteLength":1152,"byteOffset":14496,"target":34962},{"buffer":0,"byteLength":1452,"byteOffset":15648,"target":34963},{"buffer":0,"byteLength":584,"byteOffset":17100,"target":34962},{"buffer":0,"byteLength":876,"byteOffset":17684,"target":34962},{"buffer":0,"byteLength":876,"byteOffset":18560,"target":34962},{"buffer":0,"byteLength":584,"byteOffset":19436,"target":34962},{"buffer":0,"byteLength":584,"byteOffset":20020,"target":34962},{"buffer":0,"byteLength":372,"byteOffset":20604,"target":34963}],"samplers":[{"magFilter":9729,"minFilter":9987}],"buffers":[{"byteLength":20976,"uri":"Banner_1.bin"}]}