{"asset":{"generator":"Khronos glTF Blender I/O v4.0.44","version":"2.0"},"scene":0,"scenes":[{"name":"Scene","nodes":[0]}],"nodes":[{"mesh":0,"name":"Bench"}],"materials":[{"doubleSided":true,"name":"MI_Trim_Furniture","pbrMetallicRoughness":{"baseColorTexture":{"index":0},"metallicFactor":0.0,"roughnessFactor":0.8}},{"doubleSided":true,"name":"MI_Trim_Metal","pbrMetallicRoughness":{"baseColorTexture":{"index":1},"metallicFactor":0.0,"roughnessFactor":0.8}}],"meshes":[{"name":"Cube.011","primitives":[{"attributes":{"POSITION":1,"NORMAL":2,"TEXCOORD_0":3},"indices":4,"material":0},{"attributes":{"POSITION":6,"NORMAL":7,"TEXCOORD_0":8},"indices":9,"material":1}]}],"textures":[{"sampler":0,"source":0},{"sampler":0,"source":1}],"images":[{"uri":"T_Trim_Furniture_BaseColor.png"},{"uri":"T_Trim_Metal_BaseColor.png"}],"accessors":[{"bufferView":0,"componentType":5123,"count":326,"normalized":true,"type":"VEC4"},{"bufferView":1,"componentType":5126,"count":326,"max":[1.3883408308029175,0.525951623916626,0.2721467912197113],"min":[-1.3883408308029175,-0.007262172643095255,-0.2621202766895294],"type":"VEC3"},{"bufferView":2,"componentType":5126,"count":326,"type":"VEC3"},{"bufferView":3,"componentType":5126,"count":326,"type":"VEC2"},{"bufferView":4,"componentType":5123,"count":756,"type":"SCALAR"},{"bufferView":5,"componentType":5123,"count":96,"normalized":true,"type":"VEC4"},{"bufferView":6,"componentType":5126,"count":96,"max":[0.919512927532196,0.5064800381660461,0.1749059408903122],"min":[-0.919512927532196,0.47778594493865967,-0.17728674411773682],"type":"VEC3"},{"bufferView":7,"componentType":5126,"count":96,"type":"VEC3"},{"bufferView":8,"componentType":5126,"count":96,"type":"VEC2"},{"bufferView":9,"componentType":5123,"count":456,"type":"SCALAR"}],"bufferViews":[{"buffer":0,"byteLength":2608,"byteOffset":0,"target":34962},{"buffer":0,"byteLength":3912,"byteOffset":2608,"target":34962},{"buffer":0,"byteLength":3912,"byteOffset":6520,"target":34962},{"buffer":0,"byteLength":2608,"byteOffset":10432,"target":34962},{"buffer":0,"byteLength":1512,"byteOffset":13040,"target":34963},{"buffer":0,"byteLength":768,"byteOffset":14552,"target":34962},{"buffer":0,"byteLength":1152,"byteOffset":15320,"target":34962},{"buffer":0,"byteLength":1152,"byteOffset":16472,"target":34962},{"buffer":0,"byteLength":768,"byteOffset":17624,"target":34962},{"buffer":0,"byteLength":912,"byteOffset":18392,"target":34963}],"samplers":[{"magFilter":9729,"minFilter":9987}],"buffers":[{"byteLength":19304,"uri":"Bench.bin"}]}