{"asset":{"generator":"Khronos glTF Blender I/O v4.0.44","version":"2.0"},"scene":0,"scenes":[{"name":"Scene","nodes":[0]}],"nodes":[{"mesh":0,"name":"Bookcase_2"}],"materials":[{"doubleSided":true,"name":"MI_Trim_Furniture","pbrMetallicRoughness":{"baseColorTexture":{"index":0},"metallicFactor":0.0,"roughnessFactor":0.8}},{"doubleSided":true,"name":"MI_Trim_Metal","pbrMetallicRoughness":{"baseColorTexture":{"index":1},"metallicFactor":0.0,"roughnessFactor":0.8}}],"meshes":[{"name":"Cube.168","primitives":[{"attributes":{"POSITION":1,"NORMAL":2,"TEXCOORD_0":3},"indices":4,"material":0},{"attributes":{"POSITION":6,"NORMAL":7,"TEXCOORD_0":8},"indices":9,"material":1}]}],"textures":[{"sampler":0,"source":0},{"sampler":0,"source":1}],"images":[{"uri":"T_Trim_Furniture_BaseColor.png"},{"uri":"T_Trim_Metal_BaseColor.png"}],"accessors":[{"bufferView":0,"componentType":5123,"count":712,"normalized":true,"type":"VEC4"},{"bufferView":1,"componentType":5126,"count":712,"max":[0.7306193113327026,2.516263008117676,0.2082521617412567],"min":[-0.7306193113327026,-0.017383012920618057,-0.20637671649456024],"type":"VEC3"},{"bufferView":2,"componentType":5126,"count":712,"type":"VEC3"},{"bufferView":3,"componentType":5126,"count":712,"type":"VEC2"},{"bufferView":4,"componentType":5123,"count":1428,"type":"SCALAR"},{"bufferView":5,"componentType":5123,"count":1290,"normalized":true,"type":"VEC4"},{"bufferView":6,"componentType":5126,"count":1290,"max":[0.7018479704856873,2.5274698734283447,0.2144896239042282],"min":[-0.7018479704856873,0.5072457790374756,-0.21449044346809387],"type":"VEC3"},{"bufferView":7,"componentType":5126,"count":1290,"type":"VEC3"},{"bufferView":8,"componentType":5126,"count":1290,"type":"VEC2"},{"bufferView":9,"componentType":5123,"count":5016,"type":"SCALAR"}],"bufferViews":[{"buffer":0,"byteLength":5696,"byteOffset":0,"target":34962},{"buffer":0,"byteLength":8544,"byteOffset":5696,"target":34962},{"buffer":0,"byteLength":8544,"byteOffset":14240,"target":34962},{"buffer":0,"byteLength":5696,"byteOffset":22784,"target":34962},{"buffer":0,"byteLength":2856,"byteOffset":28480,"target":34963},{"buffer":0,"byteLength":10320,"byteOffset":31336,"target":34962},{"buffer":0,"byteLength":15480,"byteOffset":41656,"target":34962},{"buffer":0,"byteLength":15480,"byteOffset":57136,"target":34962},{"buffer":0,"byteLength":10320,"byteOffset":72616,"target":34962},{"buffer":0,"byteLength":10032,"byteOffset":82936,"target":34963}],"samplers":[{"magFilter":9729,"minFilter":9987}],"buffers":[{"byteLength":92968,"uri":"Bookcase_2.bin"}]}