{"asset":{"generator":"Khronos glTF Blender I/O v4.0.44","version":"2.0"},"scene":0,"scenes":[{"name":"Scene","nodes":[0]}],"nodes":[{"mesh":0,"name":"Cabinet"}],"materials":[{"doubleSided":true,"name":"MI_Trim_Furniture","pbrMetallicRoughness":{"baseColorTexture":{"index":0},"metallicFactor":0.0,"roughnessFactor":0.8}},{"doubleSided":true,"name":"MI_Trim_Metal","pbrMetallicRoughness":{"baseColorTexture":{"index":1},"metallicFactor":0.0,"roughnessFactor":0.8}}],"meshes":[{"name":"Cube.098","primitives":[{"attributes":{"POSITION":1,"NORMAL":2,"TEXCOORD_0":3},"indices":4,"material":0},{"attributes":{"POSITION":6,"NORMAL":7,"TEXCOORD_0":8},"indices":9,"material":1}]}],"textures":[{"sampler":0,"source":0},{"sampler":0,"source":1}],"images":[{"uri":"T_Trim_Furniture_BaseColor.png"},{"uri":"T_Trim_Metal_BaseColor.png"}],"accessors":[{"bufferView":0,"componentType":5123,"count":463,"normalized":true,"type":"VEC4"},{"bufferView":1,"componentType":5126,"count":463,"max":[0.6809141635894775,0.9976039528846741,0.17651748657226562],"min":[-0.6809141635894775,0.0001875162124633789,-0.18054699897766113],"type":"VEC3"},{"bufferView":2,"componentType":5126,"count":463,"type":"VEC3"},{"bufferView":3,"componentType":5126,"count":463,"type":"VEC2"},{"bufferView":4,"componentType":5123,"count":972,"type":"SCALAR"},{"bufferView":5,"componentType":5123,"count":2048,"normalized":true,"type":"VEC4"},{"bufferView":6,"componentType":5126,"count":2048,"max":[0.6081902384757996,0.6309489607810974,0.17564845085144043],"min":[-0.6081902384757996,0.15696312487125397,0.136638805270195],"type":"VEC3"},{"bufferView":7,"componentType":5126,"count":2048,"type":"VEC3"},{"bufferView":8,"componentType":5126,"count":2048,"type":"VEC2"},{"bufferView":9,"componentType":5123,"count":6192,"type":"SCALAR"}],"bufferViews":[{"buffer":0,"byteLength":3704,"byteOffset":0,"target":34962},{"buffer":0,"byteLength":5556,"byteOffset":3704,"target":34962},{"buffer":0,"byteLength":5556,"byteOffset":9260,"target":34962},{"buffer":0,"byteLength":3704,"byteOffset":14816,"target":34962},{"buffer":0,"byteLength":1944,"byteOffset":18520,"target":34963},{"buffer":0,"byteLength":16384,"byteOffset":20464,"target":34962},{"buffer":0,"byteLength":24576,"byteOffset":36848,"target":34962},{"buffer":0,"byteLength":24576,"byteOffset":61424,"target":34962},{"buffer":0,"byteLength":16384,"byteOffset":86000,"target":34962},{"buffer":0,"byteLength":12384,"byteOffset":102384,"target":34963}],"samplers":[{"magFilter":9729,"minFilter":9987}],"buffers":[{"byteLength":114768,"uri":"Cabinet.bin"}]}