{"asset":{"generator":"Khronos glTF Blender I/O v4.0.44","version":"2.0"},"scene":0,"scenes":[{"name":"Scene","nodes":[0]}],"nodes":[{"mesh":0,"name":"Crate_Metal"}],"materials":[{"doubleSided":true,"name":"MI_Trim_Furniture","pbrMetallicRoughness":{"baseColorTexture":{"index":0},"metallicFactor":0.0,"roughnessFactor":0.8}},{"doubleSided":true,"name":"MI_Trim_Metal","pbrMetallicRoughness":{"baseColorTexture":{"index":1},"metallicFactor":0.0,"roughnessFactor":0.8}}],"meshes":[{"name":"Cube.035","primitives":[{"attributes":{"POSITION":1,"NORMAL":2,"TEXCOORD_0":3},"indices":4,"material":0},{"attributes":{"POSITION":6,"NORMAL":7,"TEXCOORD_0":8},"indices":9,"material":1}]}],"textures":[{"sampler":0,"source":0},{"sampler":0,"source":1}],"images":[{"uri":"T_Trim_Furniture_BaseColor.png"},{"uri":"T_Trim_Metal_BaseColor.png"}],"accessors":[{"bufferView":0,"componentType":5123,"count":248,"normalized":true,"type":"VEC4"},{"bufferView":1,"componentType":5126,"count":248,"max":[0.40082406997680664,0.847319483757019,0.40082406997680664],"min":[-0.40082406997680664,0.025826482102274895,-0.40082406997680664],"type":"VEC3"},{"bufferView":2,"componentType":5126,"count":248,"type":"VEC3"},{"bufferView":3,"componentType":5126,"count":248,"type":"VEC2"},{"bufferView":4,"componentType":5123,"count":372,"type":"SCALAR"},{"bufferView":5,"componentType":5123,"count":2512,"normalized":true,"type":"VEC4"},{"bufferView":6,"componentType":5126,"count":2512,"max":[0.43194907903671265,0.8705162405967712,0.43296074867248535],"min":[-0.43194907903671265,0.002629682421684265,-0.43296074867248535],"type":"VEC3"},{"bufferView":7,"componentType":5126,"count":2512,"type":"VEC3"},{"bufferView":8,"componentType":5126,"count":2512,"type":"VEC2"},{"bufferView":9,"componentType":5123,"count":7842,"type":"SCALAR"}],"bufferViews":[{"buffer":0,"byteLength":1984,"byteOffset":0,"target":34962},{"buffer":0,"byteLength":2976,"byteOffset":1984,"target":34962},{"buffer":0,"byteLength":2976,"byteOffset":4960,"target":34962},{"buffer":0,"byteLength":1984,"byteOffset":7936,"target":34962},{"buffer":0,"byteLength":744,"byteOffset":9920,"target":34963},{"buffer":0,"byteLength":20096,"byteOffset":10664,"target":34962},{"buffer":0,"byteLength":30144,"byteOffset":30760,"target":34962},{"buffer":0,"byteLength":30144,"byteOffset":60904,"target":34962},{"buffer":0,"byteLength":20096,"byteOffset":91048,"target":34962},{"buffer":0,"byteLength":15684,"byteOffset":111144,"target":34963}],"samplers":[{"magFilter":9729,"minFilter":9987}],"buffers":[{"byteLength":126828,"uri":"Crate_Metal.bin"}]}