{"asset":{"generator":"Khronos glTF Blender I/O v4.0.44","version":"2.0"},"scene":0,"scenes":[{"name":"Scene","nodes":[0]}],"nodes":[{"mesh":0,"name":"FarmCrate_Empty"}],"materials":[{"doubleSided":true,"name":"MI_Trim_Furniture","pbrMetallicRoughness":{"baseColorTexture":{"index":0},"metallicFactor":0.0,"roughnessFactor":0.8}},{"doubleSided":true,"name":"MI_Trim_Metal","pbrMetallicRoughness":{"baseColorTexture":{"index":1},"metallicFactor":0.0,"roughnessFactor":0.8}}],"meshes":[{"name":"Cube.127","primitives":[{"attributes":{"POSITION":0,"NORMAL":1,"TEXCOORD_0":2},"indices":3,"material":0},{"attributes":{"POSITION":4,"NORMAL":5,"TEXCOORD_0":6},"indices":7,"material":1}]}],"textures":[{"sampler":0,"source":0},{"sampler":0,"source":1}],"images":[{"uri":"T_Trim_Furniture_BaseColor.png"},{"uri":"T_Trim_Metal_BaseColor.png"}],"accessors":[{"bufferView":0,"componentType":5126,"count":1060,"max":[0.3569227159023285,0.22779184579849243,0.1984616219997406],"min":[-0.3569227159023285,-0.015985392034053802,-0.1984616219997406],"type":"VEC3"},{"bufferView":1,"componentType":5126,"count":1060,"type":"VEC3"},{"bufferView":2,"componentType":5126,"count":1060,"type":"VEC2"},{"bufferView":3,"componentType":5123,"count":4416,"type":"SCALAR"},{"bufferView":4,"componentType":5126,"count":288,"max":[0.28873270750045776,0.20590122044086456,0.20708000659942627],"min":[-0.29124000668525696,0.017275456339120865,-0.20708000659942627],"type":"VEC3"},{"bufferView":5,"componentType":5126,"count":288,"type":"VEC3"},{"bufferView":6,"componentType":5126,"count":288,"type":"VEC2"},{"bufferView":7,"componentType":5123,"count":1368,"type":"SCALAR"}],"bufferViews":[{"buffer":0,"byteLength":12720,"byteOffset":0,"target":34962},{"buffer":0,"byteLength":12720,"byteOffset":12720,"target":34962},{"buffer":0,"byteLength":8480,"byteOffset":25440,"target":34962},{"buffer":0,"byteLength":8832,"byteOffset":33920,"target":34963},{"buffer":0,"byteLength":3456,"byteOffset":42752,"target":34962},{"buffer":0,"byteLength":3456,"byteOffset":46208,"target":34962},{"buffer":0,"byteLength":2304,"byteOffset":49664,"target":34962},{"buffer":0,"byteLength":2736,"byteOffset":51968,"target":34963}],"samplers":[{"magFilter":9729,"minFilter":9987}],"buffers":[{"byteLength":54704,"uri":"FarmCrate_Empty.bin"}]}