{"asset":{"generator":"Khronos glTF Blender I/O v4.0.44","version":"2.0"},"scene":0,"scenes":[{"name":"Scene","nodes":[0]}],"nodes":[{"mesh":0,"name":"Lantern_Wall"}],"materials":[{"doubleSided":true,"name":"MI_Trim_Metal","pbrMetallicRoughness":{"baseColorTexture":{"index":0},"metallicFactor":0.0,"roughnessFactor":0.8}}],"meshes":[{"name":"Cube.018","primitives":[{"attributes":{"POSITION":0,"NORMAL":1,"TEXCOORD_0":2},"indices":3,"material":0}]}],"textures":[{"sampler":0,"source":0}],"images":[{"uri":"T_Trim_Metal_BaseColor.png"}],"accessors":[{"bufferView":0,"componentType":5126,"count":3222,"max":[0.178670734167099,1.4188451766967773,1.2513371706008911],"min":[-0.1786707192659378,0.08183755725622177,-0.05097728595137596],"type":"VEC3"},{"bufferView":1,"componentType":5126,"count":3222,"type":"VEC3"},{"bufferView":2,"componentType":5126,"count":3222,"type":"VEC2"},{"bufferView":3,"componentType":5123,"count":8466,"type":"SCALAR"}],"bufferViews":[{"buffer":0,"byteLength":38664,"byteOffset":0,"target":34962},{"buffer":0,"byteLength":38664,"byteOffset":38664,"target":34962},{"buffer":0,"byteLength":25776,"byteOffset":77328,"target":34962},{"buffer":0,"byteLength":16932,"byteOffset":103104,"target":34963}],"samplers":[{"magFilter":9729,"minFilter":9987}],"buffers":[{"byteLength":120036,"uri":"Lantern_Wall.bin"}]}