{"asset":{"generator":"Khronos glTF Blender I/O v4.0.44","version":"2.0"},"scene":0,"scenes":[{"name":"Scene","nodes":[0]}],"nodes":[{"mesh":0,"name":"Shield_Wooden"}],"materials":[{"doubleSided":true,"name":"MI_Trim_Furniture","pbrMetallicRoughness":{"baseColorTexture":{"index":0},"metallicFactor":0.0,"roughnessFactor":0.8}},{"doubleSided":true,"name":"MI_Trim_Metal_Vertex","pbrMetallicRoughness":{"baseColorTexture":{"index":1},"metallicFactor":0.0,"roughnessFactor":0.8}},{"doubleSided":true,"name":"MI_Trim_Props","pbrMetallicRoughness":{"baseColorTexture":{"index":2},"metallicFactor":0.0,"roughnessFactor":0.8}}],"meshes":[{"name":"Cube.193","primitives":[{"attributes":{"POSITION":1,"NORMAL":2,"TEXCOORD_0":3},"indices":4,"material":0},{"attributes":{"POSITION":6,"NORMAL":7,"TEXCOORD_0":8},"indices":9,"material":1},{"attributes":{"POSITION":11,"NORMAL":12,"TEXCOORD_0":13},"indices":14,"material":2}]}],"textures":[{"sampler":0,"source":0},{"sampler":0,"source":1},{"sampler":0,"source":2}],"images":[{"uri":"T_Trim_Furniture_BaseColor.png"},{"uri":"T_Trim_Metal_BaseColor.png"},{"uri":"T_Trim_Props_BaseColor.png"}],"accessors":[{"bufferView":0,"componentType":5123,"count":395,"normalized":true,"type":"VEC4"},{"bufferView":1,"componentType":5126,"count":395,"max":[0.2810263931751251,0.2832871079444885,0.13919737935066223],"min":[-0.2826399505138397,-0.28176483511924744,0.02749248780310154],"type":"VEC3"},{"bufferView":2,"componentType":5126,"count":395,"type":"VEC3"},{"bufferView":3,"componentType":5126,"count":395,"type":"VEC2"},{"bufferView":4,"componentType":5123,"count":1440,"type":"SCALAR"},{"bufferView":5,"componentType":5123,"count":851,"normalized":true,"type":"VEC4"},{"bufferView":6,"componentType":5126,"count":851,"max":[0.30728819966316223,0.3104481101036072,0.17805080115795135],"min":[-0.30728819966316223,-0.3104481101036072,0.018366262316703796],"type":"VEC3"},{"bufferView":7,"componentType":5126,"count":851,"type":"VEC3"},{"bufferView":8,"componentType":5126,"count":851,"type":"VEC2"},{"bufferView":9,"componentType":5123,"count":2352,"type":"SCALAR"},{"bufferView":10,"componentType":5123,"count":148,"normalized":true,"type":"VEC4"},{"bufferView":11,"componentType":5126,"count":148,"max":[0.018362004309892654,0.15646028518676758,0.04415608197450638],"min":[-0.018362004309892654,-0.15646028518676758,-0.0007735927356407046],"type":"VEC3"},{"bufferView":12,"componentType":5126,"count":148,"type":"VEC3"},{"bufferView":13,"componentType":5126,"count":148,"type":"VEC2"},{"bufferView":14,"componentType":5123,"count":420,"type":"SCALAR"}],"bufferViews":[{"buffer":0,"byteLength":3160,"byteOffset":0,"target":34962},{"buffer":0,"byteLength":4740,"byteOffset":3160,"target":34962},{"buffer":0,"byteLength":4740,"byteOffset":7900,"target":34962},{"buffer":0,"byteLength":3160,"byteOffset":12640,"target":34962},{"buffer":0,"byteLength":2880,"byteOffset":15800,"target":34963},{"buffer":0,"byteLength":6808,"byteOffset":18680,"target":34962},{"buffer":0,"byteLength":10212,"byteOffset":25488,"target":34962},{"buffer":0,"byteLength":10212,"byteOffset":35700,"target":34962},{"buffer":0,"byteLength":6808,"byteOffset":45912,"target":34962},{"buffer":0,"byteLength":4704,"byteOffset":52720,"target":34963},{"buffer":0,"byteLength":1184,"byteOffset":57424,"target":34962},{"buffer":0,"byteLength":1776,"byteOffset":58608,"target":34962},{"buffer":0,"byteLength":1776,"byteOffset":60384,"target":34962},{"buffer":0,"byteLength":1184,"byteOffset":62160,"target":34962},{"buffer":0,"byteLength":840,"byteOffset":63344,"target":34963}],"samplers":[{"magFilter":9729,"minFilter":9987}],"buffers":[{"byteLength":64184,"uri":"Shield_Wooden.bin"}]}