{"asset":{"generator":"Khronos glTF Blender I/O v4.0.44","version":"2.0"},"scene":0,"scenes":[{"name":"Scene","nodes":[0]}],"nodes":[{"mesh":0,"name":"Stool"}],"materials":[{"doubleSided":true,"name":"MI_Trim_Furniture","pbrMetallicRoughness":{"baseColorTexture":{"index":0},"metallicFactor":0.0,"roughnessFactor":0.8}}],"meshes":[{"name":"Cube.097","primitives":[{"attributes":{"POSITION":1,"NORMAL":2,"TEXCOORD_0":3},"indices":4,"material":0}]}],"textures":[{"sampler":0,"source":0}],"images":[{"uri":"T_Trim_Furniture_BaseColor.png"}],"accessors":[{"bufferView":0,"componentType":5123,"count":264,"normalized":true,"type":"VEC4"},{"bufferView":1,"componentType":5126,"count":264,"max":[0.23699752986431122,0.5822744369506836,0.23699752986431122],"min":[-0.23761053383350372,-0.0064485399052500725,-0.2376105636358261],"type":"VEC3"},{"bufferView":2,"componentType":5126,"count":264,"type":"VEC3"},{"bufferView":3,"componentType":5126,"count":264,"type":"VEC2"},{"bufferView":4,"componentType":5123,"count":456,"type":"SCALAR"}],"bufferViews":[{"buffer":0,"byteLength":2112,"byteOffset":0,"target":34962},{"buffer":0,"byteLength":3168,"byteOffset":2112,"target":34962},{"buffer":0,"byteLength":3168,"byteOffset":5280,"target":34962},{"buffer":0,"byteLength":2112,"byteOffset":8448,"target":34962},{"buffer":0,"byteLength":912,"byteOffset":10560,"target":34963}],"samplers":[{"magFilter":9729,"minFilter":9987}],"buffers":[{"byteLength":11472,"uri":"Stool.bin"}]}