{"asset":{"generator":"Khronos glTF Blender I/O v4.0.44","version":"2.0"},"scene":0,"scenes":[{"name":"Scene","nodes":[0]}],"nodes":[{"mesh":0,"name":"Vase_2"}],"materials":[{"doubleSided":true,"name":"MI_Trim_Props_Vertex","pbrMetallicRoughness":{"baseColorTexture":{"index":0},"metallicFactor":0.0,"roughnessFactor":0.8}}],"meshes":[{"name":"Cylinder.015","primitives":[{"attributes":{"POSITION":1,"NORMAL":2,"TEXCOORD_0":3},"indices":4,"material":0}]}],"textures":[{"sampler":0,"source":0}],"images":[{"uri":"T_Trim_Props_BaseColor.png"}],"accessors":[{"bufferView":0,"componentType":5123,"count":440,"normalized":true,"type":"VEC4"},{"bufferView":1,"componentType":5126,"count":440,"max":[0.3473413586616516,0.515419065952301,0.3473413288593292],"min":[-0.3473413288593292,-0.0008944488363340497,-0.3473413288593292],"type":"VEC3"},{"bufferView":2,"componentType":5126,"count":440,"type":"VEC3"},{"bufferView":3,"componentType":5126,"count":440,"type":"VEC2"},{"bufferView":4,"componentType":5123,"count":1794,"type":"SCALAR"}],"bufferViews":[{"buffer":0,"byteLength":3520,"byteOffset":0,"target":34962},{"buffer":0,"byteLength":5280,"byteOffset":3520,"target":34962},{"buffer":0,"byteLength":5280,"byteOffset":8800,"target":34962},{"buffer":0,"byteLength":3520,"byteOffset":14080,"target":34962},{"buffer":0,"byteLength":3588,"byteOffset":17600,"target":34963}],"samplers":[{"magFilter":9729,"minFilter":9987}],"buffers":[{"byteLength":21188,"uri":"Vase_2.bin"}]}